<svg version="1.1" id="Layer_1" xmlns="http://www.w3.org/2000/svg" xmlns:xlink="http://www.w3.org/1999/xlink" x="0px" y="0px"
	 viewBox="0 0 18 18" style="enable-background:new 0 0 18 18;" xml:space="preserve">
<path  fill="#696c5e" d="M16.7,0H1.3C0.6,0,0,0.6,0,1.3v15.3C0,17.4,0.6,18,1.3,18h15.3c0.7,0,1.3-0.6,1.3-1.3V1.3C18,0.6,17.4,0,16.7,0z M5.4,15.3
	H2.7V6.7h2.7V15.3z M4,5.5C3.2,5.5,2.5,4.9,2.5,4S3.2,2.4,4,2.4S5.6,3.1,5.6,4S4.9,5.5,4,5.5z M15.3,15.3h-2.7v-4.7
	c0-1.4-0.6-1.8-1.3-1.8c-0.8,0-1.6,0.6-1.6,1.8v4.7H7V6.7h2.6v1.2h0c0.3-0.5,1.2-1.4,2.6-1.4c1.5,0,3.1,0.9,3.1,3.5V15.3z"/>
</svg>